<svg xmlns="http://www.w3.org/2000/svg" viewBox="0 0 289.85 84.24"><defs><style>.cls-1{fill:#1d1d1b;}</style></defs><g id="Calque_2" data-name="Calque 2"><g id="Calque_1-2" data-name="Calque 1"><path class="cls-1" d="M12.92,66.65C6.29,66.65,1.7,62.91,0,57.8L7.14,55c.68,2.12,2.81,4.76,5.78,4.76a5.22,5.22,0,0,0,5.44-4.93c0-7.31-16.66-5.36-16.66-17.94A11.62,11.62,0,0,1,13.35,25.42c6.12,0,9.6,3.23,11.13,7.73l-5.95,3.74c-.42-1.44-1.36-4.5-5.18-4.5-3.23,0-4.17,2.29-4.17,4.67,0,4.85,17.26,5.87,17.26,17.17C26.44,61,20.4,66.65,12.92,66.65Z"/><path class="cls-1" d="M54.83,65.8,41.74,49.39l-2,2.29v14.2h-7.9V0h7.9V40.46L52.45,26.78H63.07L47.26,43.69,65,65.8Z"/><path class="cls-1" d="M79.31,82.2H70.46L81.77,58.48,63.49,26.78h9.35L86,49.81l10.54-23h8.67Z"/><path class="cls-1" d="M154.19,65.88V33.66H139.4V65.88h-7.9V33.66H116.88V65.88H109v-39H162.1v39Z"/><path class="cls-1" d="M168.38,61.89V54.74h33.67v7.15Zm16.83,22.35L168.38,71.41V62.65l16.83,12.92,16.84-12.92v8.76Zm.09-32A13.31,13.31,0,1,1,198.56,39,13.3,13.3,0,0,1,185.3,52.28Zm.08-19.72A6.42,6.42,0,1,0,191.76,39,6.46,6.46,0,0,0,185.38,32.56Zm12.5,1.19V26.69h11.39v7Z"/><path class="cls-1" d="M257.38,65.88V33.66H242.59V65.88h-7.9V33.66H220.06V65.88h-7.9v-39h53.13v39Z"/><path class="cls-1" d="M283.13,33.75V65.88h-7.9v-32h-4.51v-7h4.42V12.24h7.91V26.78h6.8v7Z"/></g></g></svg>